<svg width="17" height="16" viewBox="0 0 17 16" fill="none" xmlns="http://www.w3.org/2000/svg">
<path d="M12.3984 0.5C14.6122 0.47548 16.4651 2.3321 16.499 4.7002V4.70117L16.5 4.76855C16.4987 5.61564 16.1555 6.4204 15.707 7.2207L15.5088 7.56445C14.5844 9.12495 13.0043 11.1424 11.5215 12.7734C10.7814 13.5875 10.0756 14.294 9.49805 14.793C9.20846 15.0431 8.96088 15.2327 8.76465 15.3564C8.66655 15.4183 8.58966 15.4585 8.53418 15.4814C8.51566 15.4891 8.50147 15.4922 8.49219 15.4951C8.48265 15.4922 8.4677 15.4885 8.44824 15.4805C8.39221 15.4573 8.31532 15.4176 8.2168 15.3555C8.01902 15.2307 7.77007 15.0394 7.47852 14.7871C6.89735 14.2843 6.18728 13.5725 5.44336 12.752C4.13937 11.3137 2.76209 9.57711 1.81836 8.11133L1.44238 7.50195C0.957381 6.67702 0.559126 5.84239 0.505859 4.96973L0.5 4.79492C0.48406 2.42489 2.2998 0.525163 4.51465 0.5C5.96647 0.48612 7.32474 1.29057 8.06152 2.62402L8.5 3.41602L8.9375 2.62402C9.65874 1.31856 10.9769 0.517942 12.3984 0.5Z" stroke="white"/>
</svg>
